{"context": " More than 1 year has passed since last update.\n\n\u30d5\u30a1\u30a4\u30eb\u306e\u6700\u521d\u3092\u629c\u304d\u51fa\u3059\uff08\u6700\u5f8c\u3092\u30ab\u30c3\u30c8\uff09\nffmpeg -i input_file.mp3 -t 3600 output_file.mp3\n\ninput_file.mp3\u306e\u30010\u79d2~3600\u79d2\u307e\u3067\u3092\u629c\u304d\u51fa\u3057\u3066output_file.mp3\u3068\u3044\u3046\u30d5\u30a1\u30a4\u30eb\u306b\u51fa\u529b\u3059\u308b\n\n\u30d5\u30a1\u30a4\u30eb\u306e\u9014\u4e2d\u3092\u629c\u304d\u51fa\u3059\uff08\u524d\u5f8c\u3092\u30ab\u30c3\u30c8\uff09\nffmpeg -i input_file.mp3 -ss 60 -t 3540 output_file.mp3\n\n\u6700\u521d\u306b\u7121\u97f3\u6642\u9593\u304c\u3042\u3063\u3066\u6700\u521d\u306e1\u5206\u3060\u3051\u5207\u308a\u3001\u9332\u97f3\u958b\u59cb\u304b\u30891\u6642\u9593\u3057\u305f\u3089\u305d\u306e\u5f8c\u306f\u3044\u3089\u306a\u3044\u3068\u3044\u3046\u30d1\u30bf\u30fc\u30f3\ninput_file.mp3\u306e\u300160\u79d2~3600\u79d2\u307e\u3067\u3092\u629c\u304d\u51fa\u3057\u3066output_file.mp3\u3068\u3044\u3046\u30d5\u30a1\u30a4\u30eb\u306b\u51fa\u529b\u3059\u308b\n\n\u30d5\u30a1\u30a4\u30eb\u306e\u6700\u5f8c\u3092\u629c\u304d\u51fa\u3059\uff08\u6700\u521d\u3092\u30ab\u30c3\u30c8\uff09\ninput_file.mp3\u306e\u3001\u6700\u521d\u306e60\u79d2\u3092\u30ab\u30c3\u30c8\u3057\u3066\u3001\u305d\u308c\u4ee5\u964d\u306f\u5168\u90e8\u751f\u304b\u3059\u5834\u5408\u3002\n\u3053\u306e\u5834\u5408\u306f\u3001input_file.mp3\u306e\u97f3\u58f0\u30d5\u30a1\u30a4\u30eb\u306e\u9577\u3055\u3092\u8abf\u3079\u3001\u79d2\u6570\u306b\u76f4\u3057\u3001\u305d\u3053\u304b\u308960\u5f15\u3044\u3066\u3001\u51fa\u529b\u3059\u308b\u30d5\u30a1\u30a4\u30eb\u306e\u9577\u3055\u3092\u8a08\u7b97\u3059\u308b\u3002\nffmpeg -i input_file.mp3\n\n\u3053\u306e\u3088\u3046\u306b\u30b3\u30de\u30f3\u30c9\u3092\u6253\u3064\u3068\u3001\u30d5\u30a1\u30a4\u30eb\u306e\u60c5\u5831\u304c\u5206\u304b\u308b\u3002\nffmpeg version 2.5.3 Copyright (c) 2000-2015 the FFmpeg developers\n\uff08\u7565\uff09\nInput #0, mov,mp4,m4a,3gp,3g2,mj2, from 'input_file.mp3':\n  Metadata:\n    major_brand     : M4A \n    minor_version   : 0\n    compatible_brands: M4A mp42isom\n    creation_time   : 2015-01-20 22:55:38\n    iTunSMPB        :  00000000 00000840 00000000 0000000056F0E3C0 00000000 00000000 00000000 00000000 00000000 00000000 00000000 00000000\n  Duration: 09:11:15.50, start: 0.000000, bitrate: 314 kb/s\n    Stream #0:0(und): Audio: aac (LC) (mp4a / 0x6134706D), 44100 Hz, stereo, fltp, 313 kb/s (default)\n    Metadata:\n      creation_time   : 2015-01-20 22:55:38\n      handler_name    : Core Media Audio\n\nDuration: 01:00:00.00\u3068\u3044\u3046\u306e\u304c\u30d5\u30a1\u30a4\u30eb\u306e\u9577\u3055\u3002\n9\u6642\u959311\u520615.50\u79d2\u3067\u7d42\u308f\u3063\u3066\u3044\u308b\u3068\u3044\u3046\u3053\u3068\u3092\u8868\u793a\u3057\u3066\u304f\u308c\u3066\u3044\u308b\u3002\nTerminal\u3092\u96fb\u5353\u306e\u3088\u3046\u306b\u6c17\u8efd\u306b\u4f7f\u304a\u3046\u3068\u3059\u308b\u3068\u3001\u30b9\u30da\u30fc\u30b9\u306a\u3069\u3092\u3044\u308c\u306a\u3051\u308c\u3070\u3044\u3051\u306a\u3044\u306e\u304c\u9762\u5012\u306a\u306e\u3067\u3001\u8a08\u7b97\u306b\u306fbc\u30b3\u30de\u30f3\u30c9\u3092\u4f7f\u7528\u3059\u308b\u3002\n\u8a08\u7b97\u304c\u7d42\u4e86\u3057\u305f\u3089Ctrl+D\u3067bc\u30b3\u30de\u30f3\u30c9\u3092\u7d42\u4e86\u3059\u308b\u3053\u3068\u304c\u3067\u304d\u308b\u3002\n$ bc\nbc 1.06\nCopyright 1991-1994, 1997, 1998, 2000 Free Software Foundation, Inc.\nThis is free software with ABSOLUTELY NO WARRANTY.\nFor details type `warranty'. \n9*3600+11*60+15.50-60\n33015.50\n\n\u4ed5\u4e0a\u304c\u308a\u306f33015.50\u79d2\u306b\u306a\u308b\u307f\u305f\u3044\u3002\nCtrl+D\u3092\u62bc\u3057\u3066\u8a08\u7b97\u3092\u7d42\u4e86\u3057\u3001\u4ee5\u4e0b\u306e\u30b3\u30de\u30f3\u30c9\u3067\u30ab\u30c3\u30c8\u7de8\u96c6\u3002\nffmpeg -i input_file.mp3 -ss 60 -t 33015.50 output_file.mp3\n\n\u53c2\u8003: FFmpeg\u306b\u3088\u308b\u52d5\u753b\u30a8\u30f3\u30b3\u30fc\u30c9\u306e\u57fa\u672c\n\n\u30d5\u30a1\u30a4\u30eb\u306e\u6700\u521d\u3092\u629c\u304d\u51fa\u3059\uff08\u6700\u5f8c\u3092\u30ab\u30c3\u30c8\uff09\n--\n\n```bash\nffmpeg -i input_file.mp3 -t 3600 output_file.mp3\n```\n\ninput_file.mp3\u306e\u30010\u79d2~3600\u79d2\u307e\u3067\u3092\u629c\u304d\u51fa\u3057\u3066output_file.mp3\u3068\u3044\u3046\u30d5\u30a1\u30a4\u30eb\u306b\u51fa\u529b\u3059\u308b\n\n\n\u30d5\u30a1\u30a4\u30eb\u306e\u9014\u4e2d\u3092\u629c\u304d\u51fa\u3059\uff08\u524d\u5f8c\u3092\u30ab\u30c3\u30c8\uff09\n---\n\n```bash\nffmpeg -i input_file.mp3 -ss 60 -t 3540 output_file.mp3\n```\n\n\u6700\u521d\u306b\u7121\u97f3\u6642\u9593\u304c\u3042\u3063\u3066\u6700\u521d\u306e1\u5206\u3060\u3051\u5207\u308a\u3001\u9332\u97f3\u958b\u59cb\u304b\u30891\u6642\u9593\u3057\u305f\u3089\u305d\u306e\u5f8c\u306f\u3044\u3089\u306a\u3044\u3068\u3044\u3046\u30d1\u30bf\u30fc\u30f3\n\ninput_file.mp3\u306e\u300160\u79d2~3600\u79d2\u307e\u3067\u3092\u629c\u304d\u51fa\u3057\u3066output_file.mp3\u3068\u3044\u3046\u30d5\u30a1\u30a4\u30eb\u306b\u51fa\u529b\u3059\u308b\n\n\n\u30d5\u30a1\u30a4\u30eb\u306e\u6700\u5f8c\u3092\u629c\u304d\u51fa\u3059\uff08\u6700\u521d\u3092\u30ab\u30c3\u30c8\uff09\n---\n\ninput_file.mp3\u306e\u3001\u6700\u521d\u306e60\u79d2\u3092\u30ab\u30c3\u30c8\u3057\u3066\u3001\u305d\u308c\u4ee5\u964d\u306f\u5168\u90e8\u751f\u304b\u3059\u5834\u5408\u3002\n\n\u3053\u306e\u5834\u5408\u306f\u3001input_file.mp3\u306e\u97f3\u58f0\u30d5\u30a1\u30a4\u30eb\u306e\u9577\u3055\u3092\u8abf\u3079\u3001\u79d2\u6570\u306b\u76f4\u3057\u3001\u305d\u3053\u304b\u308960\u5f15\u3044\u3066\u3001\u51fa\u529b\u3059\u308b\u30d5\u30a1\u30a4\u30eb\u306e\u9577\u3055\u3092\u8a08\u7b97\u3059\u308b\u3002\n\n```bash\nffmpeg -i input_file.mp3\n```\n\n\u3053\u306e\u3088\u3046\u306b\u30b3\u30de\u30f3\u30c9\u3092\u6253\u3064\u3068\u3001\u30d5\u30a1\u30a4\u30eb\u306e\u60c5\u5831\u304c\u5206\u304b\u308b\u3002\n\n```\nffmpeg version 2.5.3 Copyright (c) 2000-2015 the FFmpeg developers\n\uff08\u7565\uff09\nInput #0, mov,mp4,m4a,3gp,3g2,mj2, from 'input_file.mp3':\n  Metadata:\n    major_brand     : M4A \n    minor_version   : 0\n    compatible_brands: M4A mp42isom\n    creation_time   : 2015-01-20 22:55:38\n    iTunSMPB        :  00000000 00000840 00000000 0000000056F0E3C0 00000000 00000000 00000000 00000000 00000000 00000000 00000000 00000000\n  Duration: 09:11:15.50, start: 0.000000, bitrate: 314 kb/s\n    Stream #0:0(und): Audio: aac (LC) (mp4a / 0x6134706D), 44100 Hz, stereo, fltp, 313 kb/s (default)\n    Metadata:\n      creation_time   : 2015-01-20 22:55:38\n      handler_name    : Core Media Audio\n```\n\n`Duration: 01:00:00.00`\u3068\u3044\u3046\u306e\u304c\u30d5\u30a1\u30a4\u30eb\u306e\u9577\u3055\u3002\n9\u6642\u959311\u520615.50\u79d2\u3067\u7d42\u308f\u3063\u3066\u3044\u308b\u3068\u3044\u3046\u3053\u3068\u3092\u8868\u793a\u3057\u3066\u304f\u308c\u3066\u3044\u308b\u3002\n\nTerminal\u3092\u96fb\u5353\u306e\u3088\u3046\u306b\u6c17\u8efd\u306b\u4f7f\u304a\u3046\u3068\u3059\u308b\u3068\u3001\u30b9\u30da\u30fc\u30b9\u306a\u3069\u3092\u3044\u308c\u306a\u3051\u308c\u3070\u3044\u3051\u306a\u3044\u306e\u304c\u9762\u5012\u306a\u306e\u3067\u3001\u8a08\u7b97\u306b\u306fbc\u30b3\u30de\u30f3\u30c9\u3092\u4f7f\u7528\u3059\u308b\u3002\n\n\u8a08\u7b97\u304c\u7d42\u4e86\u3057\u305f\u3089Ctrl+D\u3067bc\u30b3\u30de\u30f3\u30c9\u3092\u7d42\u4e86\u3059\u308b\u3053\u3068\u304c\u3067\u304d\u308b\u3002\n\n```bash\n$ bc\nbc 1.06\nCopyright 1991-1994, 1997, 1998, 2000 Free Software Foundation, Inc.\nThis is free software with ABSOLUTELY NO WARRANTY.\nFor details type `warranty'. \n9*3600+11*60+15.50-60\n33015.50\n```\n\n\u4ed5\u4e0a\u304c\u308a\u306f33015.50\u79d2\u306b\u306a\u308b\u307f\u305f\u3044\u3002\n\nCtrl+D\u3092\u62bc\u3057\u3066\u8a08\u7b97\u3092\u7d42\u4e86\u3057\u3001\u4ee5\u4e0b\u306e\u30b3\u30de\u30f3\u30c9\u3067\u30ab\u30c3\u30c8\u7de8\u96c6\u3002\n\n```bash\nffmpeg -i input_file.mp3 -ss 60 -t 33015.50 output_file.mp3\n```\n\n\n\u53c2\u8003: [FFmpeg\u306b\u3088\u308b\u52d5\u753b\u30a8\u30f3\u30b3\u30fc\u30c9\u306e\u57fa\u672c](http://blog.asial.co.jp/1315)\n\n\n", "tags": ["ffmpeg"]}